<?xml version="1.0" encoding="utf-8"?>
<!-- Generator: Adobe Illustrator 16.0.0, SVG Export Plug-In . SVG Version: 6.00 Build 0)  -->
<!DOCTYPE svg PUBLIC "-//W3C//DTD SVG 1.1//EN" "http://www.w3.org/Graphics/SVG/1.1/DTD/svg11.dtd">
<svg version="1.1" id="Livello_1" xmlns="http://www.w3.org/2000/svg" xmlns:xlink="http://www.w3.org/1999/xlink" x="0px" y="0px"
	 width="100px" height="100px" viewBox="0 0 100 100" enable-background="new 0 0 100 100" xml:space="preserve">
<g>
	<g>
		<g>
			<g>
				<g>
					<defs>
						<polygon id="SVGID_1_" points="57.84,100.126 5.712,55.431 51.506,4.553 103.634,49.248 						"/>
					</defs>
					<use xlink:href="#SVGID_1_"  overflow="visible" fill="#FFFFFF"/>
					<clipPath id="SVGID_2_">
						<use xlink:href="#SVGID_1_"  overflow="visible"/>
					</clipPath>
					<path clip-path="url(#SVGID_2_)" fill="#FFFFFF" d="M50.531,5.748c0,0,9.34,2.523,9.96,10.137s-1.52,14.217-1.518,15.037
						l0.355-0.038l-0.002,6.939l-0.357,0.045c0,0,1.128,10.175,1.124,15.335c-0.002,5.16-1.106,46.752-2.254,46.897l-0.018,0.004
						c-0.879,0.108-3.996-41.037-3.996-46.195c0.004-5.159,0.909-15.503,0.909-15.503l-0.358,0.047l0.005-6.939l0.354-0.053
						c0-0.818-6.112-2.662-1.507-14.651C56.315,8.772,50.531,5.748,50.531,5.748L50.531,5.748z"/>
				</g>
			</g>
		</g>
	</g>
</g>
</svg>
